<svg width="11" height="11" viewBox="0 0 11 11" fill="none" xmlns="http://www.w3.org/2000/svg">
<path d="M0.138672 4.75684C0.138672 4.45736 0.246094 4.2002 0.460938 3.98535C0.675781 3.77051 0.932943 3.66309 1.23242 3.66309H2.16992C2.30013 3.66309 2.41081 3.70866 2.50195 3.7998C2.5931 3.89095 2.63867 4.00163 2.63867 4.13184C2.63867 4.26204 2.5931 4.37272 2.50195 4.46387C2.41081 4.55501 2.30013 4.60059 2.16992 4.60059H1.23242C1.19336 4.60059 1.15755 4.61686 1.125 4.64941C1.09245 4.68197 1.07617 4.71777 1.07617 4.75684V9.44434C1.07617 9.4834 1.09245 9.51921 1.125 9.55176C1.15755 9.58431 1.19336 9.60059 1.23242 9.60059H5.91992C5.95898 9.60059 5.99479 9.58431 6.02734 9.55176C6.0599 9.51921 6.07617 9.4834 6.07617 9.44434V8.50684C6.07617 8.37663 6.12174 8.26595 6.21289 8.1748C6.30404 8.08366 6.41471 8.03809 6.54492 8.03809C6.67513 8.03809 6.78581 8.08366 6.87695 8.1748C6.9681 8.26595 7.01367 8.37663 7.01367 8.50684V9.44434C7.01367 9.74382 6.90625 10.001 6.69141 10.2158C6.47656 10.4307 6.2194 10.5381 5.91992 10.5381H1.23242C0.932943 10.5381 0.675781 10.4307 0.460938 10.2158C0.246094 10.001 0.138672 9.74382 0.138672 9.44434V4.75684ZM3.26367 1.63184C3.26367 1.33236 3.37109 1.0752 3.58594 0.860352C3.80078 0.645508 4.05794 0.538086 4.35742 0.538086H9.04492C9.3444 0.538086 9.60156 0.645508 9.81641 0.860352C10.0312 1.0752 10.1387 1.33236 10.1387 1.63184V6.31934C10.1387 6.61882 10.0312 6.87598 9.81641 7.09082C9.60156 7.30566 9.3444 7.41309 9.04492 7.41309H4.35742C4.05794 7.41309 3.80078 7.30566 3.58594 7.09082C3.37109 6.87598 3.26367 6.61882 3.26367 6.31934V1.63184ZM4.35742 1.47559C4.31836 1.47559 4.28255 1.49186 4.25 1.52441C4.21745 1.55697 4.20117 1.59277 4.20117 1.63184V6.31934C4.20117 6.3584 4.21745 6.39421 4.25 6.42676C4.28255 6.45931 4.31836 6.47559 4.35742 6.47559H9.04492C9.08398 6.47559 9.11979 6.45931 9.15234 6.42676C9.1849 6.39421 9.20117 6.3584 9.20117 6.31934V1.63184C9.20117 1.59277 9.1849 1.55697 9.15234 1.52441C9.11979 1.49186 9.08398 1.47559 9.04492 1.47559H4.35742Z" fill="#FEFEFE"/>
</svg>
