<svg width="10" height="11" viewBox="0 0 10 11" fill="none" xmlns="http://www.w3.org/2000/svg">
<path d="M4.75293 4.38574L7.29199 1.84668C7.5459 1.59277 7.85352 1.46582 8.21484 1.46582C8.57617 1.46582 8.88379 1.59277 9.1377 1.84668C9.19954 1.91178 9.23047 1.98828 9.23047 2.07617C9.23047 2.16406 9.19954 2.24056 9.1377 2.30566L4.04004 7.40332C4.13118 7.64095 4.17676 7.88509 4.17676 8.13574C4.1735 8.69564 3.97656 9.1709 3.58594 9.56152C3.19531 9.95215 2.72005 10.1491 2.16016 10.1523C1.60026 10.1491 1.12337 9.95215 0.729492 9.56152C0.335612 9.1709 0.138672 8.69564 0.138672 8.13574C0.138672 7.57585 0.335612 7.09896 0.729492 6.70508C1.12337 6.3112 1.60026 6.11426 2.16016 6.11426C2.40755 6.11426 2.65007 6.15983 2.8877 6.25098L3.60059 5.53809L2.8877 4.8252C2.65007 4.91634 2.40755 4.96191 2.16016 4.96191C1.60026 4.96191 1.12337 4.76497 0.729492 4.37109C0.335612 3.97721 0.138672 3.50033 0.138672 2.94043C0.138672 2.38053 0.335612 1.90527 0.729492 1.51465C1.12337 1.12402 1.60026 0.927083 2.16016 0.923828C2.72005 0.927083 3.19531 1.12402 3.58594 1.51465C3.97656 1.90527 4.1735 2.38053 4.17676 2.94043C4.17676 3.19108 4.13118 3.43522 4.04004 3.67285L4.75293 4.38574ZM5.16309 7.10059L6.31543 5.94336L9.1377 8.77051C9.19954 8.83561 9.23047 8.91211 9.23047 9C9.23047 9.08789 9.19954 9.16439 9.1377 9.22949C8.88379 9.4834 8.57617 9.61035 8.21484 9.61035C7.85352 9.61035 7.5459 9.4834 7.29199 9.22949L5.16309 7.10059ZM1.54492 2.33008C1.37565 2.49935 1.29102 2.7028 1.29102 2.94043C1.29102 3.17806 1.37565 3.38151 1.54492 3.55078C1.71419 3.72005 1.91927 3.80469 2.16016 3.80469C2.40104 3.80794 2.60612 3.72493 2.77539 3.55566C2.94466 3.38639 3.02767 3.18132 3.02441 2.94043C3.02767 2.69954 2.94466 2.49447 2.77539 2.3252C2.60612 2.15592 2.40104 2.07292 2.16016 2.07617C1.91927 2.07617 1.71419 2.16081 1.54492 2.33008ZM2.16016 7.2666C1.91927 7.2666 1.71419 7.35124 1.54492 7.52051C1.37565 7.68978 1.29102 7.89486 1.29102 8.13574C1.29102 8.37337 1.37565 8.57682 1.54492 8.74609C1.71419 8.91536 1.91927 9 2.16016 9C2.40104 9.00326 2.60612 8.92025 2.77539 8.75098C2.94466 8.58171 3.02767 8.37663 3.02441 8.13574C3.02441 7.89486 2.93978 7.68978 2.77051 7.52051C2.60124 7.35124 2.39779 7.2666 2.16016 7.2666Z" fill="#FEFEFE"/>
</svg>
