<svg width="10" height="9" viewBox="0 0 10 9" fill="none" xmlns="http://www.w3.org/2000/svg">
<path d="M2.78125 0.5H3.35742C3.51693 0.503255 3.65202 0.560221 3.7627 0.670898C3.87337 0.781576 3.93034 0.916667 3.93359 1.07617V1.65234H2.2002V1.07617C2.2002 0.916667 2.25716 0.781576 2.37109 0.670898C2.48503 0.560221 2.62174 0.503255 2.78125 0.5ZM3.93359 2.22852V8C3.93034 8.15951 3.87337 8.2946 3.7627 8.40527C3.65202 8.51595 3.51693 8.57292 3.35742 8.57617H1.04785C0.885091 8.57292 0.748372 8.51595 0.637695 8.40527C0.527018 8.2946 0.47168 8.15951 0.47168 8V6.93555C0.47168 6.29753 0.63444 5.70671 0.959961 5.16309C1.21387 4.74642 1.37012 4.2972 1.42871 3.81543L1.56055 2.73633C1.57682 2.5931 1.6403 2.47266 1.75098 2.375C1.86165 2.27734 1.99023 2.22852 2.13672 2.22852H3.93359ZM8.04004 2.22852C8.18327 2.22852 8.31022 2.27734 8.4209 2.375C8.53158 2.47266 8.59505 2.5931 8.61133 2.73633L8.74805 3.81543C8.8099 4.30371 8.96452 4.75293 9.21191 5.16309C9.53743 5.70671 9.7002 6.29753 9.7002 6.93555V8C9.7002 8.15951 9.64486 8.2946 9.53418 8.40527C9.4235 8.51595 9.28678 8.57292 9.12402 8.57617H6.81934C6.65658 8.57292 6.51986 8.51595 6.40918 8.40527C6.2985 8.2946 6.24316 8.15951 6.24316 8V2.22852H8.04004ZM6.24316 1.07617C6.24316 0.916667 6.2985 0.781576 6.40918 0.670898C6.51986 0.560221 6.65658 0.503255 6.81934 0.5H7.39551C7.55827 0.503255 7.69499 0.560221 7.80566 0.670898C7.91634 0.781576 7.97168 0.916667 7.97168 1.07617V1.65234H6.24316V1.07617ZM5.66211 2.22852V5.11426H4.50977V2.22852H5.66211Z" fill="#FEFEFE"/>
</svg>
