<svg width="9" height="10" viewBox="0 0 9 10" fill="none" xmlns="http://www.w3.org/2000/svg">
<path d="M4.9624 3.81689H5.43506V4.74072H4.06006V2.89307H4.9624V3.81689ZM7.49756 3.81689L6.50928 2.8501L7.08936 2.27002L8.18506 3.36572V4.26807H7.26123V4.74072H5.88623V3.81689H7.49756ZM4.9624 1.30322V0.615723H4.51123V1.51807H4.9624V2.44189H4.06006V1.51807H3.13623V0.615723H2.68506V1.51807H1.76123V1.99072H0.837402V1.51807C0.837402 1.27458 0.926921 1.06331 1.10596 0.884277C1.28499 0.705241 1.50342 0.615723 1.76123 0.615723H5.43506L6.50928 1.68994L5.9292 2.27002L4.9624 1.30322ZM8.18506 8.86572C8.18506 9.10921 8.09554 9.32048 7.9165 9.49951C7.73747 9.67855 7.51904 9.76807 7.26123 9.76807H6.3374V8.86572H7.26123V8.39307H8.18506V8.86572ZM7.26123 6.56689H8.18506V7.94189H7.26123V6.56689ZM4.51123 9.76807V8.86572H5.88623V9.76807H4.51123ZM2.68506 9.76807V8.86572H4.06006V9.76807H2.68506ZM1.76123 9.76807C1.50342 9.76807 1.28499 9.67855 1.10596 9.49951C0.926921 9.32048 0.837402 9.10921 0.837402 8.86572V7.94189H1.76123V8.86572H2.2124V9.76807H1.76123ZM0.837402 6.11572H1.76123V7.49072H0.837402V6.11572ZM0.837402 4.26807H1.76123V5.64307H0.837402V4.26807ZM7.26123 4.74072H8.18506V6.11572H7.26123V4.74072ZM0.837402 2.44189H1.76123V3.81689H0.837402V2.44189Z" fill="#FEFEFE"/>
</svg>
