<svg width="8" height="9" viewBox="0 0 8 9" fill="none" xmlns="http://www.w3.org/2000/svg">
<path d="M1.1543 1.74512C1.10221 1.77441 1.07617 1.81999 1.07617 1.88184V7.81934C1.07617 7.8584 1.09245 7.89421 1.125 7.92676C1.15755 7.95931 1.19336 7.97559 1.23242 7.97559H6.54492C6.58398 7.97559 6.61979 7.95931 6.65234 7.92676C6.6849 7.89421 6.70117 7.8584 6.70117 7.81934V1.88184C6.70117 1.81999 6.67513 1.77441 6.62305 1.74512C6.55143 1.7028 6.49447 1.64583 6.45215 1.57422C6.40983 1.5026 6.38867 1.42448 6.38867 1.33984C6.38867 1.20964 6.43424 1.09896 6.52539 1.00781C6.61654 0.916667 6.72721 0.871094 6.85742 0.871094C6.94206 0.871094 7.02018 0.892253 7.0918 0.93457C7.26107 1.03223 7.39453 1.16569 7.49219 1.33496C7.58984 1.50423 7.63867 1.68652 7.63867 1.88184V7.81934C7.63867 8.11882 7.53125 8.37598 7.31641 8.59082C7.10156 8.80566 6.8444 8.91309 6.54492 8.91309H1.23242C0.932943 8.91309 0.675781 8.80566 0.460938 8.59082C0.246094 8.37598 0.138672 8.11882 0.138672 7.81934V1.88184C0.138672 1.68652 0.1875 1.50423 0.285156 1.33496C0.382812 1.16569 0.516276 1.03223 0.685547 0.93457C0.757161 0.892253 0.835286 0.871094 0.919922 0.871094C1.05013 0.871094 1.16081 0.916667 1.25195 1.00781C1.3431 1.09896 1.38867 1.20964 1.38867 1.33984C1.38867 1.42448 1.36751 1.5026 1.3252 1.57422C1.28288 1.64583 1.22591 1.7028 1.1543 1.74512ZM2.48242 0.163086H5.29492C5.42513 0.163086 5.53581 0.208659 5.62695 0.299805C5.7181 0.390951 5.76367 0.501628 5.76367 0.631836V2.50684C5.76367 2.63704 5.7181 2.74772 5.62695 2.83887C5.53581 2.93001 5.42513 2.97559 5.29492 2.97559H2.48242C2.35221 2.97559 2.24154 2.93001 2.15039 2.83887C2.05924 2.74772 2.01367 2.63704 2.01367 2.50684V0.631836C2.01367 0.501628 2.05924 0.390951 2.15039 0.299805C2.24154 0.208659 2.35221 0.163086 2.48242 0.163086ZM2.95117 2.03809H4.82617V1.10059H2.95117V2.03809Z" fill="#FEFEFE"/>
</svg>
