<svg width="7" height="10" viewBox="0 0 7 10" fill="none" xmlns="http://www.w3.org/2000/svg">
<path d="M0.644531 2.25928L1.14941 1.78125L1.89062 2.51709V1.41602C1.89062 1.1224 1.9873 0.878906 2.18066 0.685547C2.37402 0.488607 2.61751 0.390137 2.91113 0.390137H3.94238V1.05078H2.87891C2.80729 1.05078 2.73389 1.08838 2.65869 1.16357C2.5835 1.23519 2.5459 1.31934 2.5459 1.41602V2.51709L3.24414 1.81885L3.7168 2.29688L2.21289 3.83301L0.644531 2.25928ZM5.2207 3.50537V3.76318H4.64062V0.390137H5.2207L5.26367 1.81885C5.4069 1.55029 5.61279 1.41602 5.88135 1.41602C6.1499 1.41602 6.35221 1.51986 6.48828 1.72754C6.62435 1.93522 6.69238 2.22347 6.69238 2.59229C6.69238 2.95752 6.61182 3.25114 6.45068 3.47314C6.28955 3.69157 6.08187 3.80615 5.82764 3.81689C5.5734 3.82764 5.38542 3.7238 5.26367 3.50537H5.2207ZM5.2207 2.76953C5.2207 2.89128 5.2583 3.00765 5.3335 3.11865C5.40869 3.22965 5.51253 3.28516 5.64502 3.28516C5.77751 3.28516 5.88135 3.22428 5.95654 3.10254C6.03174 2.98079 6.06934 2.81608 6.06934 2.6084C6.06934 2.40072 6.03174 2.24137 5.95654 2.13037C5.88135 2.01937 5.77751 1.96387 5.64502 1.96387C5.51253 1.96387 5.40869 2.014 5.3335 2.11426C5.2583 2.21094 5.2207 2.34521 5.2207 2.51709V2.76953ZM4.64062 8.45752V7.83447C4.4401 7.95622 4.236 8.01709 4.02832 8.01709C3.82064 8.01709 3.65592 7.95085 3.53418 7.81836C3.41243 7.68229 3.35156 7.49788 3.35156 7.26514C3.35156 7.03239 3.4196 6.84977 3.55566 6.71729C3.69173 6.58122 3.86361 6.51318 4.07129 6.51318C4.27897 6.51318 4.46875 6.57406 4.64062 6.6958V5.99756C4.49023 5.92594 4.26823 5.89014 3.97461 5.89014C3.55924 5.89014 3.21729 6.01904 2.94873 6.27686C2.68018 6.53109 2.55664 6.87842 2.57812 7.31885C2.57812 7.70915 2.6945 8.02783 2.92725 8.2749C3.15999 8.51839 3.47331 8.64014 3.86719 8.64014C4.21094 8.64014 4.46875 8.57926 4.64062 8.45752ZM1.19238 4.49365H5.99414L6.69238 5.19189V9.30078L5.99414 9.99365H1.19238L0.494141 9.30078V5.19189L1.19238 4.49365ZM1.19238 5.19189V9.30078H5.99414V5.19189H1.19238Z" fill="#FEFEFE"/>
</svg>
