<svg width="10" height="11" viewBox="0 0 10 11" fill="none" xmlns="http://www.w3.org/2000/svg">
<path d="M5.0321 8.03809C5.48783 8.03809 5.90776 7.92741 6.29187 7.70605C6.67598 7.4847 6.97872 7.18197 7.20007 6.79785C7.42143 6.41374 7.5321 5.99382 7.5321 5.53809C7.5321 5.08236 7.42143 4.66243 7.20007 4.27832C6.97872 3.89421 6.67598 3.59147 6.29187 3.37012C5.90776 3.14876 5.48783 3.03809 5.0321 3.03809C4.66752 3.03809 4.32247 3.11621 3.99695 3.27246C4.42664 3.46777 4.77494 3.77051 5.04187 4.18066C5.3088 4.59082 5.44226 5.04329 5.44226 5.53809C5.44226 6.03288 5.3088 6.48535 5.04187 6.89551C4.77494 7.30566 4.42664 7.6084 3.99695 7.80371C4.32247 7.95996 4.66752 8.03809 5.0321 8.03809ZM8.37195 4.15137L9.73914 5.53809L8.37195 6.9248V8.87793H6.41882L5.0321 10.2451L3.64539 8.87793H1.69226V6.9248L0.325073 5.53809L1.69226 4.15137V2.19824H3.64539L5.0321 0.831055L6.41882 2.19824H8.37195V4.15137Z" fill="#FEFEFE"/>
</svg>
