<svg width="10" height="11" viewBox="0 0 10 11" fill="none" xmlns="http://www.w3.org/2000/svg">
<path d="M5.0321 8.03809C5.48783 8.03809 5.90776 7.92741 6.29187 7.70605C6.67598 7.4847 6.97872 7.18197 7.20007 6.79785C7.42143 6.41374 7.5321 5.99382 7.5321 5.53809C7.5321 5.08236 7.42143 4.66243 7.20007 4.27832C6.97872 3.89421 6.67598 3.59147 6.29187 3.37012C5.90776 3.14876 5.48783 3.03809 5.0321 3.03809C4.57638 3.03809 4.15645 3.14876 3.77234 3.37012C3.38822 3.59147 3.08549 3.89421 2.86414 4.27832C2.64278 4.66243 2.5321 5.08236 2.5321 5.53809C2.5321 5.99382 2.64278 6.41374 2.86414 6.79785C3.08549 7.18197 3.38822 7.4847 3.77234 7.70605C4.15645 7.92741 4.57638 8.03809 5.0321 8.03809ZM8.37195 6.9248V8.87793H6.41882L5.0321 10.2451L3.64539 8.87793H1.69226V6.9248L0.325073 5.53809L1.69226 4.15137V2.19824H3.64539L5.0321 0.831055L6.41882 2.19824H8.37195V4.15137L9.73914 5.53809L8.37195 6.9248Z" fill="#FEFEFE"/>
</svg>
