<svg width="7" height="9" viewBox="0 0 7 9" fill="none" xmlns="http://www.w3.org/2000/svg">
<path d="M5.42273 0.788086C5.64408 0.788086 5.83614 0.869466 5.9989 1.03223C6.16166 1.19499 6.24304 1.39355 6.24304 1.62793V8.28809L3.33289 7.03809L0.422729 8.28809V1.62793C0.422729 1.39355 0.50411 1.19499 0.66687 1.03223C0.829631 0.869466 1.02169 0.788086 1.24304 0.788086H5.42273ZM1.73132 3.1123L2.74695 4.12793L1.73132 5.12402L2.33679 5.70996L3.33289 4.71387L4.32898 5.70996L4.93445 5.12402L3.91882 4.12793L4.93445 3.1123L4.32898 2.52637L3.33289 3.52246L2.33679 2.52637L1.73132 3.1123Z" fill="#FEFEFE"/>
</svg>
