<svg width="15" height="11" viewBox="0 0 15 11" fill="none" xmlns="http://www.w3.org/2000/svg">
<path d="M5.00964 4.00488L4.23816 4.78125L4.23328 3.22852L5.00964 4.00488ZM4.23328 7.96973L4.23816 6.41699L5.00964 7.19336L4.23328 7.96973ZM7.23621 5.59668C7.23621 6.20215 7.20203 6.74251 7.13367 7.21777C7.06531 7.69303 6.96277 8.09668 6.82605 8.42871C6.68933 8.76074 6.52657 9.03743 6.33777 9.25879C6.15548 9.48665 5.93412 9.66569 5.67371 9.7959C5.41329 9.92611 5.14311 10.0173 4.86316 10.0693C4.58321 10.1214 4.26257 10.1491 3.90125 10.1523C3.592 10.1556 3.31042 10.1377 3.05652 10.0986C2.80261 10.0596 2.55033 9.99284 2.29968 9.89844C2.04903 9.80404 1.82605 9.68034 1.63074 9.52734C1.43542 9.37435 1.25313 9.18066 1.08386 8.94629C0.914591 8.71191 0.774618 8.43685 0.66394 8.12109C0.553263 7.80534 0.467 7.43587 0.405151 7.0127C0.343302 6.58952 0.312378 6.11751 0.312378 5.59668C0.312378 4.87402 0.370972 4.23926 0.488159 3.69238C0.605347 3.14551 0.764852 2.69629 0.966675 2.34473C1.1685 1.99967 1.4224 1.71973 1.72839 1.50488C2.03438 1.29004 2.35828 1.13867 2.70007 1.05078C3.04187 0.966146 3.42761 0.923828 3.8573 0.923828C4.15678 0.923828 4.43347 0.944987 4.68738 0.987305C4.94128 1.02962 5.18542 1.10124 5.4198 1.20215C5.65417 1.2998 5.86251 1.43001 6.0448 1.59277C6.22709 1.75553 6.39473 1.95898 6.54773 2.20312C6.70072 2.44727 6.82605 2.72884 6.92371 3.04785C7.02136 3.36686 7.09949 3.74121 7.15808 4.1709C7.21016 4.59733 7.23621 5.07259 7.23621 5.59668ZM4.37976 5.59668L5.81042 4L3.55457 1.57812V4.77148L2.22644 3.43848L1.73816 3.92188L3.40808 5.60156L1.73816 7.27637L2.22156 7.75977L3.55457 6.43164L3.59363 9.49805L5.89343 7.19824L4.37976 5.59668ZM11.6776 1.84668L11.2382 3.5752H12.4344L12.8788 1.84668H13.66L13.2157 3.5752H14.4071V4.32227H13.035L12.5565 6.24121H13.7772V6.98828H12.3661L11.8583 9H11.077L11.5897 6.98828H10.3885L9.87585 9H9.09949L9.6073 6.98828H8.34753V6.24121H9.79773L10.2762 4.32227H8.97742V3.5752H10.4569L10.8964 1.84668H11.6776ZM12.2538 4.32227H11.0575L10.579 6.24121H11.7802L12.2538 4.32227Z" fill="#FEFEFE"/>
</svg>
