<svg width="10" height="11" viewBox="0 0 10 11" fill="none" xmlns="http://www.w3.org/2000/svg">
<path d="M6.48718 1.44629L6.49207 1.45117C6.84363 1.09961 7.26681 0.923828 7.7616 0.923828C8.25639 0.923828 8.68119 1.09961 9.03601 1.45117C9.38757 1.80599 9.56335 2.23079 9.56335 2.72559C9.56335 3.22038 9.38757 3.64355 9.03601 3.99512L7.20496 5.82617L7.37585 5.99707C7.48979 6.10775 7.54675 6.24284 7.54675 6.40234C7.54675 6.56185 7.48979 6.69857 7.37585 6.8125C7.26192 6.92643 7.1252 6.9834 6.9657 6.9834C6.80619 6.9834 6.66947 6.92643 6.55554 6.8125L3.67468 3.92676C3.56075 3.81608 3.50378 3.68099 3.50378 3.52148C3.50378 3.36198 3.56075 3.22526 3.67468 3.11133C3.78861 2.9974 3.92533 2.94043 4.08484 2.94043C4.24434 2.94043 4.37944 2.9974 4.49011 3.11133L4.66101 3.28223L6.48718 1.44629ZM1.33093 6.74902L3.50378 4.57617L4.31921 5.3916L2.14636 7.56934C2.08777 7.62793 2.05847 7.69466 2.05847 7.76953V8.42383H2.71277C2.78764 8.42383 2.85437 8.39453 2.91296 8.33594L5.0907 6.16309L5.90613 6.97852L3.73328 9.15625C3.45333 9.4362 3.11316 9.57617 2.71277 9.57617H1.94617L1.22839 10.0547C1.11446 10.1296 0.989136 10.1605 0.852417 10.1475C0.715698 10.1344 0.598511 10.0791 0.500854 9.98145C0.403198 9.88379 0.34786 9.7666 0.334839 9.62988C0.321818 9.49316 0.352743 9.36784 0.427612 9.25391L0.906128 8.53613V7.76953C0.906128 7.3724 1.04773 7.03223 1.33093 6.74902Z" fill="#FEFEFE"/>
</svg>
