<svg width="9" height="9" viewBox="0 0 9 9" fill="none" xmlns="http://www.w3.org/2000/svg">
<path d="M3.66492 8.03418V1.04199H2.45398C2.05033 1.04199 1.70528 1.18848 1.41882 1.48145C1.13236 1.77441 0.989136 2.11621 0.989136 2.50684V6.56934C0.989136 6.95996 1.13562 7.30176 1.42859 7.59473C1.72156 7.8877 2.06335 8.03418 2.45398 8.03418H3.66492ZM2.45398 0.37793H4.34851V8.69824H2.45398C2.06335 8.69824 1.70528 8.60384 1.37976 8.41504C1.05424 8.22624 0.797078 7.96908 0.608276 7.64355C0.419474 7.31803 0.325073 6.95996 0.325073 6.56934V2.50684C0.325073 2.11621 0.419474 1.75814 0.608276 1.43262C0.797078 1.1071 1.05424 0.849935 1.37976 0.661133C1.70528 0.472331 2.06335 0.37793 2.45398 0.37793ZM1.61414 2.87793C1.61414 2.65658 1.69226 2.47103 1.84851 2.32129C2.00476 2.17155 2.19031 2.09668 2.40515 2.09668C2.62 2.09668 2.80229 2.17155 2.95203 2.32129C3.10177 2.47103 3.17664 2.65332 3.17664 2.86816C3.17664 3.08301 3.10177 3.26855 2.95203 3.4248C2.80229 3.58105 2.62 3.65918 2.40515 3.65918C2.19031 3.65918 2.00476 3.58105 1.84851 3.4248C1.69226 3.26855 1.61414 3.08626 1.61414 2.87793ZM6.82898 4.12793C6.5946 4.12793 6.39278 4.20931 6.22351 4.37207C6.05424 4.53483 5.9696 4.73014 5.9696 4.95801C5.9696 5.18587 6.05424 5.38118 6.22351 5.54395C6.39278 5.70671 6.59135 5.78809 6.81921 5.78809C7.04708 5.78809 7.24565 5.70671 7.41492 5.54395C7.58419 5.38118 7.66882 5.18587 7.66882 4.95801C7.66882 4.73014 7.58419 4.53483 7.41492 4.37207C7.24565 4.20931 7.05033 4.12793 6.82898 4.12793ZM6.51648 8.69824H5.16882V0.37793H6.51648C6.9071 0.37793 7.26518 0.472331 7.5907 0.661133C7.91622 0.849935 8.17338 1.1071 8.36218 1.43262C8.55098 1.75814 8.64539 2.11621 8.64539 2.50684V6.56934C8.64539 6.95996 8.55098 7.31803 8.36218 7.64355C8.17338 7.96908 7.91622 8.22624 7.5907 8.41504C7.26518 8.60384 6.9071 8.69824 6.51648 8.69824Z" fill="#FEFEFE"/>
</svg>
