<svg width="7" height="9" viewBox="0 0 7 9" fill="none" xmlns="http://www.w3.org/2000/svg">
<path d="M4.63171 2.61426H6.29187V4.29395H5.88171V5.11426C5.88171 5.34863 5.80033 5.5472 5.63757 5.70996C5.47481 5.87272 5.27625 5.9541 5.04187 5.9541H3.79187V7.22363C3.94812 7.30176 4.07182 7.41243 4.16296 7.55566C4.25411 7.69889 4.29968 7.86165 4.29968 8.04395C4.29968 8.29134 4.20854 8.50618 4.02625 8.68848C3.84395 8.87077 3.62911 8.96191 3.38171 8.96191C3.13432 8.96191 2.91947 8.87077 2.73718 8.68848C2.55489 8.50618 2.46375 8.29134 2.46375 8.04395C2.46375 7.86165 2.50932 7.69889 2.60046 7.55566C2.69161 7.41243 2.81531 7.30176 2.97156 7.22363V5.9541H1.72156C1.48718 5.9541 1.28861 5.87272 1.12585 5.70996C0.963094 5.5472 0.881714 5.34863 0.881714 5.11426V4.25488C0.725464 4.17676 0.601766 4.06608 0.51062 3.92285C0.419474 3.77962 0.373901 3.62337 0.373901 3.4541C0.373901 3.19368 0.465047 2.97559 0.647339 2.7998C0.829631 2.62402 1.04773 2.53613 1.30164 2.53613C1.55554 2.53613 1.77039 2.62728 1.94617 2.80957C2.12195 2.99186 2.20984 3.20671 2.20984 3.4541C2.20984 3.62337 2.16427 3.77962 2.07312 3.92285C1.98197 4.06608 1.86479 4.17676 1.72156 4.25488V5.11426H2.97156V1.79395H2.13171L3.38171 0.114258L4.63171 1.79395H3.79187V5.11426H5.04187V4.29395H4.63171V2.61426Z" fill="#FEFEFE"/>
</svg>
