<svg width="10" height="9" viewBox="0 0 10 9" fill="none" xmlns="http://www.w3.org/2000/svg">
<path d="M3.06921 0.758789C3.16036 0.840169 3.20919 0.939453 3.2157 1.05664C3.22221 1.17383 3.18315 1.27799 3.09851 1.36914L1.79968 2.80957C1.71505 2.90397 1.61251 2.95117 1.49207 2.95117C1.36186 2.95117 1.25606 2.91048 1.17468 2.8291L0.452026 2.10645C0.367391 2.02181 0.325073 1.91927 0.325073 1.79883C0.325073 1.67839 0.367391 1.57585 0.452026 1.49121C0.530151 1.40658 0.631063 1.36426 0.754761 1.36426C0.878459 1.36426 0.980998 1.40658 1.06238 1.49121L1.46277 1.8916L2.45398 0.788086C2.53536 0.69694 2.63464 0.648112 2.75183 0.641602C2.86902 0.635091 2.97319 0.672526 3.06433 0.753906L3.06921 0.758789ZM3.06921 3.63965C3.16036 3.72428 3.20919 3.8252 3.2157 3.94238C3.22221 4.05957 3.18315 4.16374 3.09851 4.25488L1.79968 5.69531C1.71505 5.78971 1.61251 5.83691 1.49207 5.83691C1.36511 5.83691 1.25932 5.7946 1.17468 5.70996L0.452026 4.99219C0.367391 4.91081 0.325073 4.80827 0.325073 4.68457C0.325073 4.56087 0.367391 4.45833 0.452026 4.37695C0.536662 4.29232 0.637573 4.25 0.754761 4.25C0.871948 4.25 0.974487 4.29232 1.06238 4.37695L1.46277 4.77734L2.45398 3.67383C2.53536 3.58268 2.63464 3.53385 2.75183 3.52734C2.86902 3.52083 2.97319 3.55827 3.06433 3.63965H3.06921ZM4.36316 1.79883C4.36641 1.63932 4.42338 1.50423 4.53406 1.39355C4.64473 1.28288 4.77983 1.22591 4.93933 1.22266H8.97742C9.14018 1.22591 9.2769 1.28288 9.38757 1.39355C9.49825 1.50423 9.55359 1.63932 9.55359 1.79883C9.55359 1.95833 9.49825 2.09342 9.38757 2.2041C9.2769 2.31478 9.14018 2.37174 8.97742 2.375H4.93933C4.77983 2.37174 4.64473 2.31478 4.53406 2.2041C4.42338 2.09342 4.36641 1.95833 4.36316 1.79883ZM4.36316 4.68457C4.36641 4.52181 4.42338 4.38509 4.53406 4.27441C4.64473 4.16374 4.77983 4.1084 4.93933 4.1084H8.97742C9.14018 4.1084 9.2769 4.16374 9.38757 4.27441C9.49825 4.38509 9.55359 4.52181 9.55359 4.68457C9.55359 4.84733 9.49825 4.98405 9.38757 5.09473C9.2769 5.2054 9.14018 5.26074 8.97742 5.26074H4.93933C4.77983 5.26074 4.64473 5.2054 4.53406 5.09473C4.42338 4.98405 4.36641 4.84733 4.36316 4.68457ZM3.21082 7.57031C3.21407 7.41081 3.27104 7.27409 3.38171 7.16016C3.49239 7.04622 3.62748 6.98926 3.78699 6.98926H8.97742C9.14018 6.98926 9.2769 7.04622 9.38757 7.16016C9.49825 7.27409 9.55359 7.41081 9.55359 7.57031C9.55359 7.72982 9.49825 7.86491 9.38757 7.97559C9.2769 8.08626 9.14018 8.14323 8.97742 8.14648H3.78699C3.62748 8.14323 3.49239 8.08626 3.38171 7.97559C3.27104 7.86491 3.21407 7.72982 3.21082 7.57031ZM0.578979 6.95508C0.74825 6.78581 0.951701 6.70117 1.18933 6.70117C1.42696 6.70117 1.63041 6.78581 1.79968 6.95508C1.96895 7.12435 2.05359 7.32943 2.05359 7.57031C2.05359 7.80794 1.96895 8.01139 1.79968 8.18066C1.63041 8.34993 1.42696 8.43457 1.18933 8.43457C0.951701 8.43457 0.74825 8.34993 0.578979 8.18066C0.409709 8.01139 0.325073 7.80794 0.325073 7.57031C0.325073 7.32943 0.409709 7.12435 0.578979 6.95508Z" fill="#FEFEFE"/>
</svg>
