<svg width="11" height="11" viewBox="0 0 11 11" fill="none" xmlns="http://www.w3.org/2000/svg">
<path d="M3.13757 1.01172C3.13757 0.88151 3.18315 0.770833 3.27429 0.679688C3.36544 0.588542 3.47611 0.542969 3.60632 0.542969C3.73653 0.542969 3.84721 0.588542 3.93835 0.679688L4.0946 0.835938C4.19877 0.940104 4.30294 1.04427 4.4071 1.14844L4.56335 1.30469C4.8075 1.21354 5.0614 1.16797 5.32507 1.16797C5.58875 1.16797 5.84265 1.21354 6.08679 1.30469L6.24304 1.14844C6.34721 1.04427 6.45138 0.940104 6.55554 0.835938L6.71179 0.679688C6.80294 0.582031 6.91524 0.533203 7.04871 0.533203C7.15613 0.533203 7.25216 0.565755 7.33679 0.630859C7.42143 0.695964 7.47677 0.780599 7.50281 0.884766C7.51257 0.923828 7.51746 0.962891 7.51746 1.00195C7.51746 1.13867 7.47026 1.2526 7.37585 1.34375L6.89246 1.82227C7.08777 2.02409 7.23914 2.25846 7.34656 2.52539C7.45723 2.78581 7.51257 3.0625 7.51257 3.35547V3.56055C7.51257 3.61914 7.50769 3.67773 7.49792 3.73633C7.75509 3.82747 7.96993 3.98047 8.14246 4.19531L9.36804 3.69727C9.42013 3.67773 9.47384 3.66797 9.52917 3.66797C9.65938 3.66797 9.76843 3.7168 9.85632 3.81445C9.94747 3.9056 9.99467 4.01302 9.99792 4.13672C9.99792 4.23438 9.97188 4.32227 9.9198 4.40039C9.86772 4.47852 9.80098 4.53385 9.7196 4.56641L8.45007 5.07422V6.16797H9.85632C9.98653 6.16797 10.0972 6.21354 10.1884 6.30469C10.2795 6.39583 10.3251 6.50651 10.3251 6.63672C10.3251 6.76693 10.2795 6.8776 10.1884 6.96875C10.0972 7.0599 9.98653 7.10547 9.85632 7.10547H8.45007V7.41797C8.45007 7.66536 8.42078 7.91276 8.36218 8.16016L9.7196 8.69727C9.80424 8.73633 9.87097 8.79492 9.9198 8.87305C9.97188 8.95117 9.99792 9.03581 9.99792 9.12695C9.99792 9.25716 9.95235 9.36784 9.86121 9.45898C9.77006 9.55013 9.65938 9.5957 9.52917 9.5957C9.47384 9.5957 9.42013 9.58594 9.36804 9.56641L9.03113 9.42969C8.80326 9.33854 8.5754 9.2474 8.34753 9.15625L8.00574 9.01953C7.72904 9.48177 7.35307 9.85286 6.87781 10.1328C6.40255 10.4062 5.88497 10.543 5.32507 10.543C4.76518 10.543 4.2476 10.4062 3.77234 10.1328C3.29708 9.85938 2.9211 9.48828 2.64441 9.01953L1.2821 9.56641C1.23002 9.58594 1.17468 9.5957 1.11609 9.5957C0.985881 9.5957 0.875203 9.55013 0.784058 9.45898C0.692912 9.36784 0.647339 9.25716 0.647339 9.12695C0.647339 9.03581 0.673381 8.95117 0.725464 8.87305C0.777547 8.79492 0.845907 8.73633 0.930542 8.69727L2.28796 8.16016C2.22937 7.91927 2.20007 7.67188 2.20007 7.41797V7.10547H0.793823C0.663615 7.10547 0.552938 7.0599 0.461792 6.96875C0.370646 6.8776 0.325073 6.76693 0.325073 6.63672C0.325073 6.50651 0.370646 6.39583 0.461792 6.30469C0.552938 6.21354 0.663615 6.16797 0.793823 6.16797H2.20007V5.07422L0.930542 4.56641C0.845907 4.53385 0.777547 4.47852 0.725464 4.40039C0.673381 4.32227 0.647339 4.23438 0.647339 4.13672C0.647339 4.00651 0.692912 3.89583 0.784058 3.80469C0.875203 3.71354 0.985881 3.66797 1.11609 3.66797C1.17143 3.66797 1.22677 3.67773 1.2821 3.69727L1.58972 3.82422C1.7948 3.90234 1.99988 3.98372 2.20496 4.06836L2.50769 4.19531C2.68022 3.98047 2.89506 3.82747 3.15222 3.73633C3.14246 3.67773 3.13757 3.61914 3.13757 3.56055V3.35547C3.13757 3.0625 3.19291 2.78581 3.30359 2.52539C3.41427 2.25846 3.56563 2.02409 3.75769 1.82227L3.27429 1.34375C3.18315 1.2526 3.13757 1.14193 3.13757 1.01172ZM3.60632 4.60547C3.47611 4.60547 3.36544 4.65104 3.27429 4.74219C3.18315 4.83333 3.13757 4.94401 3.13757 5.07422V7.41797C3.13757 8.01693 3.35242 8.53125 3.7821 8.96094C4.21179 9.39062 4.72611 9.60547 5.32507 9.60547C5.92403 9.60547 6.43835 9.39062 6.86804 8.96094C7.29773 8.53125 7.51257 8.01693 7.51257 7.41797V5.07422C7.51257 4.94401 7.467 4.83333 7.37585 4.74219C7.28471 4.65104 7.17403 4.60547 7.04382 4.60547H3.60632ZM4.1825 3.66797H6.46765C6.49695 3.66797 6.52299 3.6582 6.54578 3.63867C6.56531 3.61914 6.57507 3.5931 6.57507 3.56055V3.35547C6.57507 3.01042 6.453 2.71582 6.20886 2.47168C5.96472 2.22754 5.67013 2.10547 5.32507 2.10547C4.98002 2.10547 4.68542 2.22754 4.44128 2.47168C4.19714 2.71582 4.07507 3.01042 4.07507 3.35547V3.56055C4.07507 3.58659 4.08484 3.61263 4.10437 3.63867C4.12716 3.6582 4.1532 3.66797 4.1825 3.66797Z" fill="#FEFEFE"/>
</svg>
