<svg width="8" height="9" viewBox="0 0 8 9" fill="none" xmlns="http://www.w3.org/2000/svg">
<path d="M5.01746 1.56934C5.01746 1.18197 5.15417 0.849935 5.42761 0.573242C5.70105 0.299805 6.03308 0.163086 6.42371 0.163086C6.81108 0.163086 7.14311 0.299805 7.4198 0.573242C7.69324 0.84668 7.82996 1.17871 7.82996 1.56934C7.82996 1.87207 7.74369 2.14388 7.57117 2.38477C7.39864 2.62565 7.1724 2.79655 6.89246 2.89746V3.28809C6.89246 3.71777 6.73946 4.08561 6.43347 4.3916C6.12748 4.69759 5.75964 4.85059 5.32996 4.85059H2.82996C2.66069 4.85059 2.5142 4.91243 2.3905 5.03613C2.26681 5.15983 2.20496 5.30632 2.20496 5.47559V6.17871C2.48165 6.27637 2.70789 6.44727 2.88367 6.69141C3.05945 6.93229 3.14571 7.2041 3.14246 7.50684C3.14246 7.89421 3.00574 8.22624 2.7323 8.50293C2.45886 8.77637 2.12683 8.91309 1.73621 8.91309C1.34884 8.91309 1.01681 8.77637 0.740112 8.50293C0.466675 8.22949 0.329956 7.89746 0.329956 7.50684C0.329956 7.2041 0.416219 6.93229 0.588745 6.69141C0.761271 6.45052 0.987508 6.27962 1.26746 6.17871V2.89746C0.990763 2.7998 0.764526 2.62891 0.588745 2.38477C0.412964 2.14388 0.326701 1.87207 0.329956 1.56934C0.329956 1.18197 0.466675 0.849935 0.740112 0.573242C1.01355 0.299805 1.34558 0.163086 1.73621 0.163086C2.12358 0.163086 2.45561 0.299805 2.7323 0.573242C3.00574 0.84668 3.14246 1.17871 3.14246 1.56934C3.14246 1.87207 3.05457 2.14388 2.87878 2.38477C2.70626 2.62565 2.48165 2.79655 2.20496 2.89746V4.04492C2.40352 3.96029 2.61023 3.91634 2.82507 3.91309H2.82996H3.45496C3.87162 3.91309 4.28829 3.91309 4.70496 3.91309H5.32996C5.49923 3.91309 5.64571 3.85124 5.76941 3.72754C5.89311 3.60384 5.95496 3.45736 5.95496 3.28809V2.89746C5.67826 2.7998 5.45203 2.62891 5.27625 2.38477C5.10372 2.14388 5.01746 1.87207 5.01746 1.56934ZM1.40417 1.2373C1.31303 1.32845 1.26746 1.43913 1.26746 1.56934C1.26746 1.69954 1.31303 1.81022 1.40417 1.90137C1.49532 1.99251 1.606 2.03809 1.73621 2.03809C1.86641 2.03809 1.97709 1.99251 2.06824 1.90137C2.15938 1.81022 2.20496 1.69954 2.20496 1.56934C2.20496 1.43913 2.15938 1.32845 2.06824 1.2373C1.97709 1.14616 1.86641 1.10059 1.73621 1.10059C1.606 1.10059 1.49532 1.14616 1.40417 1.2373ZM6.75574 1.2373C6.66459 1.14616 6.55391 1.10059 6.42371 1.10059C6.2935 1.10059 6.18282 1.14616 6.09167 1.2373C6.00053 1.32845 5.95496 1.43913 5.95496 1.56934C5.95496 1.69954 6.00053 1.81022 6.09167 1.90137C6.18282 1.99251 6.2935 2.03809 6.42371 2.03809C6.55391 2.03809 6.66459 1.99251 6.75574 1.90137C6.84688 1.81022 6.89246 1.69954 6.89246 1.56934C6.89246 1.43913 6.84688 1.32845 6.75574 1.2373ZM2.06824 7.1748C1.97709 7.08366 1.86641 7.03809 1.73621 7.03809C1.606 7.03809 1.49532 7.08366 1.40417 7.1748C1.31303 7.26595 1.26746 7.37663 1.26746 7.50684C1.26746 7.63704 1.31303 7.74772 1.40417 7.83887C1.49532 7.93001 1.606 7.97559 1.73621 7.97559C1.86641 7.97559 1.97709 7.93001 2.06824 7.83887C2.15938 7.74772 2.20496 7.63704 2.20496 7.50684C2.20496 7.37663 2.15938 7.26595 2.06824 7.1748Z" fill="#FEFEFE"/>
</svg>
