<svg width="11" height="9" viewBox="0 0 11 9" fill="none" xmlns="http://www.w3.org/2000/svg">
<path d="M8.71472 7.8457V8.85352H1.70691C1.44128 8.85352 1.21082 8.75586 1.0155 8.56055C0.82019 8.36523 0.722534 8.12695 0.722534 7.8457V2.85352H1.70691V7.8457H8.71472ZM10.7069 1.8457V5.85352C10.7069 6.11914 10.6093 6.34961 10.4139 6.54492C10.2186 6.74023 9.98816 6.83789 9.72253 6.83789H3.72253C3.44128 6.83789 3.203 6.74023 3.00769 6.54492C2.81238 6.34961 2.71472 6.11914 2.71472 5.85352V1.8457C2.71472 1.56445 2.81238 1.32617 3.00769 1.13086C3.203 0.935547 3.44128 0.837891 3.72253 0.837891H9.72253C9.98816 0.837891 10.2186 0.935547 10.4139 1.13086C10.6093 1.32617 10.7069 1.56445 10.7069 1.8457ZM9.72253 1.8457H3.72253V5.85352H9.72253V1.8457Z" fill="#FEFEFE"/>
</svg>
