<svg width="9" height="7" viewBox="0 0 9 7" fill="none" xmlns="http://www.w3.org/2000/svg">
<path d="M3.23523 0.198242H1.98523V1.87793H3.23523V0.198242ZM1.14539 5.19824H0.325073V3.94824H1.14539V5.19824ZM0.325073 3.53809V2.28809H1.14539V3.53809H0.325073ZM6.98523 1.87793V1.03809H7.82507C8.04643 1.03809 8.23848 1.11947 8.40125 1.28223C8.56401 1.44499 8.64539 1.64355 8.64539 1.87793H6.98523ZM8.64539 3.94824V5.19824H7.82507V3.94824H8.64539ZM7.82507 2.28809H8.64539V3.53809H7.82507V2.28809ZM3.23523 6.87793H1.98523V6.03809H3.23523V6.87793ZM1.57507 6.03809V6.87793H1.14539C0.924032 6.87793 0.731974 6.79655 0.569214 6.63379C0.406453 6.47103 0.325073 6.27246 0.325073 6.03809V5.62793H1.14539V6.03809H1.57507ZM7.82507 5.62793H8.64539V6.03809C8.64539 6.27246 8.56401 6.47103 8.40125 6.63379C8.23848 6.79655 8.04643 6.87793 7.82507 6.87793H6.98523V6.03809H7.82507V5.62793ZM1.14539 1.87793H0.325073V1.03809C0.325073 0.803711 0.406453 0.605143 0.569214 0.442383C0.731974 0.279622 0.924032 0.198242 1.14539 0.198242H1.57507V1.87793H1.14539ZM6.57507 6.03809V6.87793H5.32507V6.03809H6.57507ZM4.89539 6.03809V6.87793H3.64539V6.03809H4.89539ZM6.57507 1.03809V1.87793H5.32507V1.03809H6.57507ZM3.64539 1.87793V0.198242L4.48523 1.03809H4.89539V1.87793H3.64539Z" fill="#FEFEFE"/>
</svg>
