<svg width="7" height="11" viewBox="0 0 7 11" fill="none" xmlns="http://www.w3.org/2000/svg">
<path d="M3.4989 0.923828C3.97742 0.920573 4.38595 1.08822 4.72449 1.42676C5.06303 1.7653 5.23067 2.17383 5.22742 2.65234V5.53809C5.23067 6.01335 5.06303 6.42025 4.72449 6.75879C4.38595 7.09733 3.97742 7.2666 3.4989 7.2666C3.02039 7.2666 2.61186 7.09733 2.27332 6.75879C1.93477 6.42025 1.7655 6.01335 1.7655 5.53809V2.65234C1.7655 2.17383 1.93477 1.7653 2.27332 1.42676C2.61186 1.08822 3.02039 0.920573 3.4989 0.923828ZM1.18933 4.81543V5.53809C1.18933 5.95475 1.2935 6.34049 1.50183 6.69531C1.71016 7.05013 1.99011 7.33008 2.34167 7.53516C2.69649 7.74023 3.08223 7.84277 3.4989 7.84277C3.91557 7.84277 4.30131 7.74023 4.65613 7.53516C5.00769 7.33008 5.28764 7.05013 5.49597 6.69531C5.70431 6.34049 5.80847 5.95475 5.80847 5.53809V4.81543C5.80847 4.69824 5.85079 4.59733 5.93542 4.5127C6.02006 4.42806 6.12097 4.38574 6.23816 4.38574C6.3586 4.38574 6.46114 4.42806 6.54578 4.5127C6.63041 4.59733 6.67273 4.69824 6.67273 4.81543V5.53809C6.67273 6.06543 6.55229 6.55697 6.3114 7.0127C6.07052 7.46842 5.74174 7.84277 5.32507 8.13574C4.90841 8.42871 4.44454 8.611 3.93347 8.68262V9.28809H4.79773C4.91817 9.28809 5.02071 9.3304 5.10535 9.41504C5.18998 9.49967 5.23067 9.60059 5.22742 9.71777C5.23067 9.83822 5.18998 9.94076 5.10535 10.0254C5.02071 10.11 4.91817 10.1523 4.79773 10.1523H3.4989H2.20007C2.07963 10.1523 1.97709 10.11 1.89246 10.0254C1.80782 9.94076 1.7655 9.83822 1.7655 9.71777C1.7655 9.60059 1.80782 9.49967 1.89246 9.41504C1.97709 9.3304 2.07963 9.28809 2.20007 9.28809H3.06433V8.68262C2.55326 8.611 2.0894 8.42871 1.67273 8.13574C1.25606 7.84277 0.927287 7.46842 0.686401 7.0127C0.445516 6.55697 0.325073 6.06543 0.325073 5.53809V4.81543C0.325073 4.69824 0.367391 4.59733 0.452026 4.5127C0.536662 4.42806 0.639201 4.38574 0.759644 4.38574C0.876831 4.38574 0.977743 4.42806 1.06238 4.5127C1.14701 4.59733 1.18933 4.69824 1.18933 4.81543Z" fill="#FEFEFE"/>
</svg>
