<svg width="10" height="9" viewBox="0 0 10 9" fill="none" xmlns="http://www.w3.org/2000/svg">
<path d="M1.57507 1.41309V0.163086H2.41492V1.41309H3.66492V2.25293H2.41492V3.50293H1.57507V2.25293H0.325073V1.41309H1.57507ZM2.82507 3.91309V2.66309H4.07507V1.41309H6.98523L7.74695 2.25293H9.07507C9.30945 2.25293 9.50802 2.33431 9.67078 2.49707C9.83354 2.65983 9.91492 2.8584 9.91492 3.09277V8.09277C9.91492 8.31413 9.83354 8.50618 9.67078 8.66895C9.50802 8.83171 9.30945 8.91309 9.07507 8.91309H2.41492C2.18054 8.91309 1.98197 8.83171 1.81921 8.66895C1.65645 8.50618 1.57507 8.31413 1.57507 8.09277V3.91309H2.82507ZM5.73523 7.66309C6.19096 7.66309 6.58809 7.5459 6.92664 7.31152C7.26518 7.07715 7.51257 6.7679 7.66882 6.38379C7.82507 5.99967 7.87065 5.6123 7.80554 5.22168C7.72742 4.80501 7.5321 4.43717 7.2196 4.11816C6.9071 3.79915 6.53601 3.60059 6.10632 3.52246C5.7157 3.45736 5.32833 3.50293 4.94421 3.65918C4.5601 3.81543 4.25736 4.05632 4.03601 4.38184C3.78861 4.7334 3.66492 5.13704 3.66492 5.59277C3.66492 5.97038 3.75606 6.31868 3.93835 6.6377C4.12065 6.95671 4.3713 7.20736 4.69031 7.38965C5.00932 7.57194 5.35763 7.66309 5.73523 7.66309ZM4.4071 5.59277C4.4071 5.97038 4.53731 6.28288 4.79773 6.53027C5.05815 6.77767 5.37065 6.90788 5.73523 6.9209C6.09981 6.93392 6.41557 6.80371 6.6825 6.53027C6.94942 6.25684 7.07963 5.94108 7.07312 5.58301C7.06661 5.22493 6.93966 4.91243 6.69226 4.64551C6.44486 4.37858 6.13236 4.24512 5.75476 4.24512C5.37716 4.24512 5.05815 4.37858 4.79773 4.64551C4.53731 4.91243 4.4071 5.22819 4.4071 5.59277Z" fill="#FEFEFE"/>
</svg>
