<svg width="9" height="9" viewBox="0 0 9 9" fill="none" xmlns="http://www.w3.org/2000/svg">
<path d="M7.82507 1.6084C8.04643 1.6084 8.23848 1.68978 8.40125 1.85254C8.56401 2.0153 8.64539 2.21387 8.64539 2.44824V7.44824C8.64539 7.68262 8.56401 7.88118 8.40125 8.04395C8.23848 8.20671 8.04643 8.28809 7.82507 8.28809H1.14539C0.924032 8.28809 0.731974 8.20671 0.569214 8.04395C0.406453 7.88118 0.325073 7.68262 0.325073 7.44824V2.44824C0.325073 2.21387 0.406453 2.0153 0.569214 1.85254C0.731974 1.68978 0.924032 1.6084 1.14539 1.6084H2.47351L3.23523 0.788086H5.73523L6.49695 1.6084H7.82507ZM7.82507 7.44824V2.44824H6.12585L5.36414 1.6084H3.60632L2.8446 2.44824H1.14539V7.44824H7.82507ZM4.48523 2.8584C4.86283 2.8584 5.21114 2.9528 5.53015 3.1416C5.84916 3.3304 6.10307 3.58431 6.29187 3.90332C6.48067 4.22233 6.57507 4.57064 6.57507 4.94824C6.57507 5.32585 6.48067 5.67415 6.29187 5.99316C6.10307 6.31217 5.84916 6.56608 5.53015 6.75488C5.21114 6.94368 4.86283 7.03809 4.48523 7.03809C4.10763 7.03809 3.75932 6.94368 3.44031 6.75488C3.1213 6.56608 2.86739 6.31217 2.67859 5.99316C2.48979 5.67415 2.39539 5.32585 2.39539 4.94824C2.39539 4.57064 2.48979 4.22233 2.67859 3.90332C2.86739 3.58431 3.1213 3.3304 3.44031 3.1416C3.75932 2.9528 4.10763 2.8584 4.48523 2.8584ZM4.48523 6.19824C4.83679 6.19824 5.13302 6.0778 5.3739 5.83691C5.61479 5.59603 5.73523 5.2998 5.73523 4.94824C5.73523 4.59668 5.61479 4.30046 5.3739 4.05957C5.13302 3.81868 4.83679 3.69824 4.48523 3.69824C4.13367 3.69824 3.83744 3.81868 3.59656 4.05957C3.35567 4.30046 3.23523 4.59668 3.23523 4.94824C3.23523 5.2998 3.35567 5.59603 3.59656 5.83691C3.83744 6.0778 4.13367 6.19824 4.48523 6.19824Z" fill="#FEFEFE"/>
</svg>
