<svg width="10" height="9" viewBox="0 0 10 9" fill="none" xmlns="http://www.w3.org/2000/svg">
<path d="M3.0155 1.09082C3.07735 0.915039 3.18315 0.77181 3.33289 0.661133C3.48263 0.550456 3.65027 0.496745 3.83582 0.5H6.04773C6.23653 0.496745 6.4058 0.550456 6.55554 0.661133C6.70528 0.77181 6.80945 0.915039 6.86804 1.09082L7.05359 1.65234H8.40125C8.72026 1.64909 8.99207 1.76139 9.21667 1.98926C9.44128 2.21712 9.55359 2.48893 9.55359 2.80469V7.42383C9.55359 7.73958 9.44128 8.01139 9.21667 8.23926C8.99207 8.46712 8.72026 8.57943 8.40125 8.57617H1.47742C1.15841 8.57943 0.886597 8.46712 0.661987 8.23926C0.437378 8.01139 0.325073 7.73958 0.325073 7.42383V2.80469C0.325073 2.48893 0.437378 2.21712 0.661987 1.98926C0.886597 1.76139 1.15841 1.64909 1.47742 1.65234H2.82507L3.0155 1.09082ZM6.16492 3.89355C5.82638 3.55501 5.41785 3.38574 4.93933 3.38574C4.46082 3.38574 4.05229 3.55501 3.71375 3.89355C3.3752 4.2321 3.20756 4.639 3.21082 5.11426C3.20756 5.58952 3.3752 5.99642 3.71375 6.33496C4.05229 6.6735 4.46082 6.84277 4.93933 6.84277C5.41785 6.84277 5.82638 6.6735 6.16492 6.33496C6.50346 5.99642 6.67273 5.58952 6.67273 5.11426C6.67273 4.639 6.50346 4.2321 6.16492 3.89355Z" fill="#FEFEFE"/>
</svg>
