<svg width="9" height="9" viewBox="0 0 9 9" fill="none" xmlns="http://www.w3.org/2000/svg">
<path d="M5.75476 0.548828C5.85893 0.594401 5.94194 0.666016 6.00378 0.763672C6.06563 0.861328 6.09656 0.965495 6.09656 1.07617V8C6.09656 8.11719 6.06563 8.22461 6.00378 8.32227C5.94194 8.41992 5.85893 8.48828 5.75476 8.52734C5.65059 8.57943 5.54317 8.5957 5.4325 8.57617C5.32182 8.55664 5.22253 8.50781 5.13464 8.42969L2.703 6.27148H1.47742C1.15841 6.27148 0.886597 6.15918 0.661987 5.93457C0.437378 5.70996 0.325073 5.43815 0.325073 5.11914V3.9668C0.325073 3.64779 0.439006 3.37435 0.66687 3.14648C0.894735 2.91862 1.16492 2.80469 1.47742 2.80469H2.703L5.13464 0.646484C5.22253 0.57487 5.32182 0.529297 5.4325 0.509766C5.54317 0.490234 5.65059 0.503255 5.75476 0.548828ZM7.7616 3.19531C7.96016 3.35807 8.11641 3.55664 8.23035 3.79102C8.34428 4.02539 8.40125 4.27441 8.40125 4.53809C8.40125 4.80176 8.34428 5.05078 8.23035 5.28516C8.11641 5.51953 7.96016 5.7181 7.7616 5.88086C7.6672 5.95898 7.5614 5.99154 7.44421 5.97852C7.32703 5.96549 7.231 5.91341 7.15613 5.82227C7.08126 5.72461 7.05033 5.61719 7.06335 5.5C7.07638 5.38281 7.12846 5.28516 7.2196 5.20703C7.43119 5.03776 7.53699 4.81641 7.53699 4.54297C7.53699 4.26953 7.43119 4.04492 7.2196 3.86914C7.12846 3.79102 7.07638 3.69336 7.06335 3.57617C7.05033 3.45898 7.08126 3.35319 7.15613 3.25879C7.231 3.16439 7.32703 3.11068 7.44421 3.09766C7.5614 3.08464 7.6672 3.11719 7.7616 3.19531Z" fill="#FEFEFE"/>
</svg>
