<svg width="12" height="9" viewBox="0 0 12 9" fill="none" xmlns="http://www.w3.org/2000/svg">
<path d="M9.94421 0.509766C10.5432 0.998047 11.0119 1.59375 11.3505 2.29688C11.689 3 11.8599 3.7487 11.8632 4.54297C11.8599 5.33724 11.689 6.08594 11.3505 6.78906C11.0119 7.49219 10.5432 8.08464 9.94421 8.56641C9.84656 8.64453 9.73914 8.67708 9.62195 8.66406C9.50476 8.65104 9.40873 8.59896 9.33386 8.50781C9.25899 8.41016 9.22807 8.30273 9.24109 8.18555C9.25411 8.06836 9.30619 7.9707 9.39734 7.89258C9.89213 7.48893 10.2828 6.99577 10.5692 6.41309C10.8557 5.8304 10.9989 5.2054 10.9989 4.53809C10.9989 3.87077 10.8557 3.24577 10.5692 2.66309C10.2828 2.0804 9.89213 1.58724 9.39734 1.18359C9.30619 1.10547 9.25411 1.00781 9.24109 0.890625C9.22807 0.773438 9.25899 0.667643 9.33386 0.573242C9.40873 0.478841 9.50476 0.42513 9.62195 0.412109C9.73914 0.399089 9.84656 0.431641 9.94421 0.509766ZM8.85535 1.85742C9.25248 2.17643 9.56498 2.57031 9.79285 3.03906C10.0207 3.50781 10.1346 4.00911 10.1346 4.54297C10.1346 5.07682 10.0207 5.57812 9.79285 6.04688C9.56498 6.51562 9.25248 6.90951 8.85535 7.22852C8.76095 7.30664 8.65515 7.33919 8.53796 7.32617C8.42078 7.31315 8.32312 7.25944 8.245 7.16504C8.16687 7.07064 8.13432 6.96484 8.14734 6.84766C8.16036 6.73047 8.21407 6.63281 8.30847 6.55469C8.60795 6.3138 8.84233 6.01758 9.0116 5.66602C9.18087 5.31445 9.2655 4.9401 9.2655 4.54297C9.2655 4.14583 9.18087 3.77148 9.0116 3.41992C8.84233 3.06836 8.60795 2.76888 8.30847 2.52148C8.21407 2.44987 8.16036 2.35547 8.14734 2.23828C8.13432 2.12109 8.16687 2.01367 8.245 1.91602C8.32312 1.82487 8.42078 1.77279 8.53796 1.75977C8.65515 1.74674 8.76095 1.77604 8.85535 1.84766V1.85742ZM7.7616 3.19531C7.96016 3.35807 8.11641 3.55664 8.23035 3.79102C8.34428 4.02539 8.40125 4.27441 8.40125 4.53809C8.40125 4.80176 8.34428 5.05078 8.23035 5.28516C8.11641 5.51953 7.96016 5.7181 7.7616 5.88086C7.6672 5.95898 7.5614 5.99154 7.44421 5.97852C7.32703 5.96549 7.231 5.91341 7.15613 5.82227C7.08126 5.72461 7.05033 5.61719 7.06335 5.5C7.07638 5.38281 7.12846 5.28516 7.2196 5.20703C7.43119 5.03776 7.53699 4.81641 7.53699 4.54297C7.53699 4.26953 7.43119 4.04492 7.2196 3.86914C7.12846 3.79102 7.07638 3.69336 7.06335 3.57617C7.05033 3.45898 7.08126 3.35319 7.15613 3.25879C7.231 3.16439 7.32703 3.11068 7.44421 3.09766C7.5614 3.08464 7.6672 3.11719 7.7616 3.19531ZM5.75476 0.548828C5.85893 0.594401 5.94194 0.666016 6.00378 0.763672C6.06563 0.861328 6.09656 0.965495 6.09656 1.07617V8C6.09656 8.11719 6.06563 8.22461 6.00378 8.32227C5.94194 8.41992 5.85893 8.48828 5.75476 8.52734C5.65059 8.57943 5.54317 8.5957 5.4325 8.57617C5.32182 8.55664 5.22253 8.50781 5.13464 8.42969L2.703 6.27148H1.47742C1.15841 6.27148 0.886597 6.15918 0.661987 5.93457C0.437378 5.70996 0.325073 5.43815 0.325073 5.11914V3.9668C0.325073 3.64779 0.439006 3.37435 0.66687 3.14648C0.894735 2.91862 1.16492 2.80469 1.47742 2.80469H2.703L5.13464 0.646484C5.22253 0.57487 5.32182 0.529297 5.4325 0.509766C5.54317 0.490234 5.65059 0.503255 5.75476 0.548828Z" fill="#FEFEFE"/>
</svg>
