<svg width="11" height="9" viewBox="0 0 11 9" fill="none" xmlns="http://www.w3.org/2000/svg">
<path d="M5.75476 0.548828C5.85893 0.591146 5.94194 0.661133 6.00378 0.758789C6.06563 0.856445 6.09656 0.96224 6.09656 1.07617V8C6.09656 8.11393 6.06563 8.21973 6.00378 8.31738C5.94194 8.41504 5.85893 8.48503 5.75476 8.52734C5.65059 8.57617 5.54317 8.59082 5.4325 8.57129C5.32182 8.55176 5.22253 8.50456 5.13464 8.42969L2.703 6.2666H1.47742C1.15841 6.2666 0.886597 6.1543 0.661987 5.92969C0.437378 5.70508 0.325073 5.43327 0.325073 5.11426V3.96191C0.325073 3.6429 0.439006 3.36947 0.66687 3.1416C0.894735 2.91374 1.16492 2.80143 1.47742 2.80469H2.703L5.13464 0.646484C5.22253 0.571615 5.32182 0.524414 5.4325 0.504883C5.54317 0.485352 5.65059 0.5 5.75476 0.548828ZM7.98621 2.93164L8.97742 3.92285L9.96863 2.93164C10.05 2.84701 10.1525 2.80469 10.2762 2.80469C10.3999 2.80469 10.5025 2.84701 10.5839 2.93164C10.6685 3.01953 10.7108 3.12207 10.7108 3.23926C10.7108 3.35645 10.6685 3.45736 10.5839 3.54199L9.58777 4.5332L10.5839 5.5293C10.6685 5.61719 10.7108 5.71973 10.7108 5.83691C10.7108 5.9541 10.6685 6.05501 10.5839 6.13965C10.4992 6.22428 10.3967 6.2666 10.2762 6.2666C10.1558 6.2666 10.0533 6.22428 9.96863 6.13965L8.97742 5.14844L7.98621 6.13965C7.89832 6.22428 7.79578 6.2666 7.67859 6.2666C7.5614 6.2666 7.46049 6.22428 7.37585 6.13965C7.29122 6.05501 7.2489 5.9541 7.2489 5.83691C7.2489 5.71973 7.29122 5.61719 7.37585 5.5293L8.36707 4.5332L7.37585 3.54199C7.29122 3.45736 7.2489 3.35482 7.2489 3.23438C7.2489 3.11393 7.29122 3.01302 7.37585 2.93164C7.46049 2.84701 7.5614 2.80469 7.67859 2.80469C7.79578 2.80469 7.89832 2.84701 7.98621 2.93164Z" fill="#FEFEFE"/>
</svg>
