<svg width="9" height="9" viewBox="0 0 9 9" fill="none" xmlns="http://www.w3.org/2000/svg">
<path d="M3.55261 5.78809L5.64246 4.53809L3.55261 3.28809V5.78809ZM7.49792 4.94824L8.37683 5.63184C8.46798 5.69694 8.481 5.78809 8.41589 5.90527L7.57605 7.35059C7.52397 7.44173 7.43933 7.46777 7.32214 7.42871L6.28699 7.01855C6.01355 7.21387 5.77917 7.35059 5.58386 7.42871L5.42761 8.52246C5.40157 8.63965 5.33647 8.69824 5.2323 8.69824H3.55261C3.44845 8.69824 3.38334 8.63965 3.3573 8.52246L3.20105 7.42871C2.96667 7.32454 2.7323 7.18783 2.49792 7.01855L1.46277 7.42871C1.34558 7.46777 1.26095 7.44173 1.20886 7.35059L0.369019 5.90527C0.303914 5.78809 0.316935 5.69694 0.408081 5.63184L1.28699 4.94824C1.27397 4.88314 1.26746 4.74642 1.26746 4.53809C1.26746 4.32975 1.27397 4.19303 1.28699 4.12793L0.408081 3.44434C0.316935 3.37923 0.303914 3.28809 0.369019 3.1709L1.20886 1.72559C1.26095 1.63444 1.34558 1.6084 1.46277 1.64746L2.49792 2.05762C2.77136 1.8623 3.00574 1.72559 3.20105 1.64746L3.3573 0.553711C3.38334 0.436523 3.44845 0.37793 3.55261 0.37793H5.2323C5.33647 0.37793 5.40157 0.436523 5.42761 0.553711L5.58386 1.64746C5.81824 1.75163 6.05261 1.88835 6.28699 2.05762L7.32214 1.64746C7.43933 1.6084 7.52397 1.63444 7.57605 1.72559L8.41589 3.1709C8.481 3.28809 8.46798 3.37923 8.37683 3.44434L7.49792 4.12793C7.51095 4.19303 7.51746 4.32975 7.51746 4.53809C7.51746 4.74642 7.51095 4.88314 7.49792 4.94824Z" fill="#FEFEFE"/>
</svg>
