<svg width="12" height="12" viewBox="0 0 12 12" fill="none" xmlns="http://www.w3.org/2000/svg">
<path d="M4.19421 0.329102C4.94161 0.329102 5.6252 0.511393 6.245 0.875977C6.86479 1.24056 7.35697 1.73275 7.72156 2.35254C8.08614 2.97233 8.26843 3.65592 8.26843 4.40332C8.26843 5.31478 8.00411 6.12598 7.47546 6.83691L7.94031 7.3291H8.26843L11.7684 10.8291L10.62 11.9775L7.12 8.47754V8.14941L6.62781 7.68457C5.91687 8.21322 5.10567 8.47754 4.19421 8.47754C3.44682 8.47754 2.76322 8.29525 2.14343 7.93066C1.52364 7.56608 1.03145 7.07389 0.66687 6.4541C0.302287 5.83431 0.119995 5.15072 0.119995 4.40332C0.119995 3.65592 0.302287 2.97233 0.66687 2.35254C1.03145 1.73275 1.52364 1.24056 2.14343 0.875977C2.76322 0.511393 3.44682 0.329102 4.19421 0.329102ZM5.42468 2.3252L4.19421 3.58301L2.96375 2.3252L2.11609 3.17285L3.3739 4.40332L2.11609 5.63379L2.96375 6.48145L4.19421 5.22363L5.42468 6.48145L6.27234 5.63379L5.01453 4.40332L6.27234 3.17285L5.42468 2.3252Z" fill="#FEFEFE"/>
</svg>
